<svg xmlns="http://www.w3.org/2000/svg" xmlns:xlink="http://www.w3.org/1999/xlink" width="500" zoomAndPan="magnify" viewBox="0 0 375 374.999991" height="500" preserveAspectRatio="xMidYMid meet" version="1.0"><defs><g/><clipPath id="2487c13d76"><path d="M 15.71875 1.042969 L 269.128906 1.042969 L 269.128906 283.863281 L 15.71875 283.863281 Z M 15.71875 1.042969 " clip-rule="nonzero"/></clipPath><clipPath id="84db462d8d"><path d="M 0.839844 99 L 284.28125 99 L 284.28125 179 L 0.839844 179 Z M 0.839844 99 " clip-rule="nonzero"/></clipPath><clipPath id="b3f4790059"><rect x="0" width="285" y="0" height="80"/></clipPath><clipPath id="e958bcb41d"><rect x="0" width="285" y="0" height="285"/></clipPath></defs><g transform="matrix(1, 0, 0, 1, 45, 45)"><g clip-path="url(#e958bcb41d)"><g clip-path="url(#2487c13d76)"><path fill="#000000" d="M 257.828125 223.746094 C 262.140625 217.613281 265.972656 211.121094 269.277344 204.320312 L 243.476562 204.320312 C 225.289062 227.113281 197.277344 241.71875 165.855469 241.71875 C 134.429688 241.71875 106.421875 227.113281 88.234375 204.320312 L 15.730469 204.320312 C 16.359375 205.855469 17.015625 207.375 17.691406 208.882812 L 48.421875 229.175781 L 82.796875 209.328125 L 87.390625 217.28125 L 48.097656 239.964844 L 28.71875 227.167969 C 40.878906 243.417969 56.453125 256.960938 74.378906 266.742188 L 94.144531 270.027344 L 117.472656 237.914062 L 124.902344 243.3125 L 99.996094 277.59375 C 113.277344 281.722656 127.398438 283.949219 142.035156 283.949219 C 145.949219 283.949219 149.820312 283.78125 153.648438 283.472656 L 160.777344 249.925781 L 169.761719 251.835938 L 163.273438 282.359375 C 180.046875 279.832031 195.855469 274.359375 210.160156 266.484375 L 205.226562 243.285156 L 214.207031 241.378906 L 218.492188 261.523438 C 231.222656 253.328125 242.550781 243.140625 252.042969 231.410156 L 243.128906 219.140625 L 250.558594 213.746094 Z M 88.183594 80.675781 C 106.371094 57.847656 134.402344 43.21875 165.855469 43.21875 C 197.308594 43.21875 225.339844 57.847656 243.523438 80.675781 L 269.277344 80.675781 C 263.542969 68.890625 256.222656 58.019531 247.589844 48.347656 L 236.128906 58.660156 L 229.984375 51.835938 L 241.25 41.695312 C 230.898438 31.503906 218.988281 22.894531 205.90625 16.261719 L 196.269531 37.90625 L 187.878906 34.175781 L 197.582031 12.378906 C 183.253906 6.253906 167.710938 2.433594 151.414062 1.367188 L 151.414062 35.164062 L 142.230469 35.164062 L 142.230469 1.050781 C 142.164062 1.050781 142.101562 1.050781 142.035156 1.050781 C 126.957031 1.050781 112.433594 3.417969 98.808594 7.789062 L 93.171875 14.636719 L 109.316406 50.902344 L 100.929688 54.636719 L 82.839844 14.007812 C 72.695312 18.6875 63.195312 24.527344 54.519531 31.371094 L 47.765625 55.839844 L 75.347656 80.675781 Z M 61.625 80.675781 L 37.402344 58.867188 L 41.890625 42.609375 C 33.722656 50.800781 26.554688 59.988281 20.578125 69.972656 C 19.5625 72.011719 18.582031 74.066406 17.648438 76.148438 L 18.328125 80.675781 Z M 153.480469 220.621094 C 136.011719 220.621094 119.886719 214.886719 106.875 205.203125 C 122.40625 219.988281 143.421875 229.066406 166.558594 229.066406 C 190.148438 229.066406 211.535156 219.625 227.148438 204.320312 L 201.234375 204.320312 C 188.027344 214.535156 171.464844 220.621094 153.480469 220.621094 Z M 166.558594 55.929688 C 143.421875 55.929688 122.40625 65.007812 106.875 79.792969 C 119.886719 70.109375 136.011719 64.375 153.480469 64.375 C 171.464844 64.375 188.03125 70.457031 201.234375 80.675781 L 227.148438 80.675781 C 211.535156 65.371094 190.148438 55.929688 166.558594 55.929688 " fill-opacity="1" fill-rule="nonzero"/></g><g clip-path="url(#84db462d8d)"><g transform="matrix(1, 0, 0, 1, -0.000000000000007105, 99)"><g clip-path="url(#b3f4790059)"><g fill="#b81f1d" fill-opacity="1"><g transform="translate(2.569697, 66.081271)"><g><path d="M 37.671875 -26.578125 C 38.160156 -26.085938 38.40625 -25.507812 38.40625 -24.84375 L 38.40625 -1 C 38.40625 -0.726562 38.300781 -0.492188 38.09375 -0.296875 C 37.894531 -0.0976562 37.660156 0 37.390625 0 L 32.921875 0 C 32.648438 0 32.414062 -0.0976562 32.21875 -0.296875 C 32.019531 -0.492188 31.921875 -0.726562 31.921875 -1 L 31.921875 -10.953125 L 8.484375 -10.953125 L 8.484375 -1 C 8.484375 -0.726562 8.378906 -0.492188 8.171875 -0.296875 C 7.972656 -0.0976562 7.742188 0 7.484375 0 L 3 0 C 2.738281 0 2.503906 -0.0976562 2.296875 -0.296875 C 2.097656 -0.492188 2 -0.726562 2 -1 L 2 -24.84375 C 2 -25.507812 2.242188 -26.085938 2.734375 -26.578125 L 8.609375 -32.59375 C 9.148438 -33.125 9.820312 -33.390625 10.625 -33.390625 L 29.78125 -33.390625 C 30.582031 -33.390625 31.25 -33.125 31.78125 -32.59375 Z M 8.484375 -16.765625 L 31.921875 -16.765625 L 31.921875 -23.109375 C 31.921875 -23.554688 31.765625 -23.929688 31.453125 -24.234375 L 29.3125 -26.25 L 28.921875 -26.578125 C 28.742188 -26.710938 28.519531 -26.78125 28.25 -26.78125 L 12.15625 -26.78125 C 11.84375 -26.78125 11.617188 -26.710938 11.484375 -26.578125 L 11.078125 -26.25 L 8.953125 -24.234375 C 8.640625 -23.929688 8.484375 -23.554688 8.484375 -23.109375 Z M 8.484375 -16.765625 "/></g></g></g><g fill="#b81f1d" fill-opacity="1"><g transform="translate(42.954715, 66.081271)"><g><path d="M 44.40625 -33.390625 C 44.675781 -33.390625 44.910156 -33.289062 45.109375 -33.09375 C 45.304688 -32.894531 45.40625 -32.660156 45.40625 -32.390625 L 45.40625 -27.375 C 45.40625 -27.113281 45.304688 -26.878906 45.109375 -26.671875 C 44.910156 -26.472656 44.675781 -26.375 44.40625 -26.375 L 27.25 -26.375 L 27.25 -1 C 27.25 -0.726562 27.144531 -0.492188 26.9375 -0.296875 C 26.738281 -0.0976562 26.507812 0 26.25 0 L 21.234375 0 C 20.960938 0 20.726562 -0.0976562 20.53125 -0.296875 C 20.332031 -0.492188 20.234375 -0.726562 20.234375 -1 L 20.234375 -26.375 L 3 -26.375 C 2.738281 -26.375 2.503906 -26.472656 2.296875 -26.671875 C 2.097656 -26.878906 2 -27.113281 2 -27.375 L 2 -32.390625 C 2 -32.660156 2.097656 -32.894531 2.296875 -33.09375 C 2.503906 -33.289062 2.738281 -33.390625 3 -33.390625 Z M 44.40625 -33.390625 "/></g></g></g><g fill="#b81f1d" fill-opacity="1"><g transform="translate(90.348718, 66.081271)"><g><path d="M 68.1875 -25.90625 C 68.40625 -25.6875 68.582031 -25.429688 68.71875 -25.140625 C 68.851562 -24.847656 68.921875 -24.523438 68.921875 -24.171875 L 68.921875 -1 C 68.921875 -0.726562 68.816406 -0.492188 68.609375 -0.296875 C 68.410156 -0.0976562 68.179688 0 67.921875 0 L 63.4375 0 C 63.175781 0 62.941406 -0.0976562 62.734375 -0.296875 C 62.535156 -0.492188 62.4375 -0.726562 62.4375 -1 L 62.4375 -22.171875 C 62.4375 -22.660156 62.28125 -23.039062 61.96875 -23.3125 L 58.640625 -26.578125 C 58.453125 -26.710938 58.226562 -26.78125 57.96875 -26.78125 L 43.875 -26.78125 C 43.65625 -26.78125 43.429688 -26.710938 43.203125 -26.578125 L 40 -23.578125 C 39.6875 -23.304688 39.53125 -22.925781 39.53125 -22.4375 L 39.53125 -1 C 39.53125 -0.726562 39.429688 -0.492188 39.234375 -0.296875 C 39.035156 -0.0976562 38.800781 0 38.53125 0 L 34.0625 0 C 33.789062 0 33.554688 -0.0976562 33.359375 -0.296875 C 33.160156 -0.492188 33.0625 -0.726562 33.0625 -1 L 33.0625 -22.4375 C 33.0625 -22.925781 32.90625 -23.304688 32.59375 -23.578125 L 29.390625 -26.578125 C 29.203125 -26.710938 28.976562 -26.78125 28.71875 -26.78125 L 13.015625 -26.78125 C 12.796875 -26.78125 12.578125 -26.710938 12.359375 -26.578125 L 8.953125 -23.234375 C 8.640625 -22.921875 8.484375 -22.546875 8.484375 -22.109375 L 8.484375 -1 C 8.484375 -0.726562 8.378906 -0.492188 8.171875 -0.296875 C 7.972656 -0.0976562 7.742188 0 7.484375 0 L 3 0 C 2.738281 0 2.503906 -0.0976562 2.296875 -0.296875 C 2.097656 -0.492188 2 -0.726562 2 -1 L 2 -24.171875 C 2 -24.523438 2.078125 -24.847656 2.234375 -25.140625 C 2.390625 -25.429688 2.554688 -25.6875 2.734375 -25.90625 L 9.28125 -32.59375 C 9.8125 -33.125 10.476562 -33.390625 11.28125 -33.390625 L 30.25 -33.390625 C 31.144531 -33.390625 31.8125 -33.125 32.25 -32.59375 L 36.328125 -28.453125 L 40.328125 -32.59375 C 40.828125 -33.125 41.5 -33.390625 42.34375 -33.390625 L 59.640625 -33.390625 C 60.441406 -33.390625 61.109375 -33.125 61.640625 -32.59375 Z M 68.1875 -25.90625 "/></g></g></g><g fill="#b81f1d" fill-opacity="1"><g transform="translate(161.239467, 66.081271)"><g><path d="M 37.671875 -26.578125 C 38.160156 -26.085938 38.40625 -25.507812 38.40625 -24.84375 L 38.40625 -1 C 38.40625 -0.726562 38.300781 -0.492188 38.09375 -0.296875 C 37.894531 -0.0976562 37.660156 0 37.390625 0 L 32.921875 0 C 32.648438 0 32.414062 -0.0976562 32.21875 -0.296875 C 32.019531 -0.492188 31.921875 -0.726562 31.921875 -1 L 31.921875 -10.953125 L 8.484375 -10.953125 L 8.484375 -1 C 8.484375 -0.726562 8.378906 -0.492188 8.171875 -0.296875 C 7.972656 -0.0976562 7.742188 0 7.484375 0 L 3 0 C 2.738281 0 2.503906 -0.0976562 2.296875 -0.296875 C 2.097656 -0.492188 2 -0.726562 2 -1 L 2 -24.84375 C 2 -25.507812 2.242188 -26.085938 2.734375 -26.578125 L 8.609375 -32.59375 C 9.148438 -33.125 9.820312 -33.390625 10.625 -33.390625 L 29.78125 -33.390625 C 30.582031 -33.390625 31.25 -33.125 31.78125 -32.59375 Z M 8.484375 -16.765625 L 31.921875 -16.765625 L 31.921875 -23.109375 C 31.921875 -23.554688 31.765625 -23.929688 31.453125 -24.234375 L 29.3125 -26.25 L 28.921875 -26.578125 C 28.742188 -26.710938 28.519531 -26.78125 28.25 -26.78125 L 12.15625 -26.78125 C 11.84375 -26.78125 11.617188 -26.710938 11.484375 -26.578125 L 11.078125 -26.25 L 8.953125 -24.234375 C 8.640625 -23.929688 8.484375 -23.554688 8.484375 -23.109375 Z M 8.484375 -16.765625 "/></g></g></g><g fill="#b81f1d" fill-opacity="1"><g transform="translate(201.624485, 66.081271)"><g><path d="M 32.921875 -20.09375 C 32.648438 -20.09375 32.414062 -20.191406 32.21875 -20.390625 C 32.019531 -20.597656 31.921875 -20.835938 31.921875 -21.109375 L 31.921875 -23.4375 C 31.921875 -23.925781 31.765625 -24.304688 31.453125 -24.578125 L 29.3125 -26.578125 C 28.957031 -26.929688 28.601562 -27.109375 28.25 -27.109375 L 12.625 -27.109375 C 12.3125 -27.109375 11.976562 -26.929688 11.625 -26.578125 L 9.484375 -24.578125 C 9.171875 -24.265625 9.015625 -23.882812 9.015625 -23.4375 L 9.015625 -9.953125 C 9.015625 -9.503906 9.171875 -9.125 9.484375 -8.8125 L 11.625 -6.8125 C 11.976562 -6.457031 12.3125 -6.28125 12.625 -6.28125 L 28.25 -6.28125 C 28.601562 -6.28125 28.957031 -6.457031 29.3125 -6.8125 L 31.453125 -8.8125 C 31.765625 -9.082031 31.921875 -9.460938 31.921875 -9.953125 L 31.921875 -12.28125 C 31.921875 -12.550781 32.019531 -12.785156 32.21875 -12.984375 C 32.414062 -13.191406 32.648438 -13.296875 32.921875 -13.296875 L 37.390625 -13.296875 C 37.660156 -13.296875 37.894531 -13.191406 38.09375 -12.984375 C 38.300781 -12.785156 38.40625 -12.550781 38.40625 -12.28125 L 38.40625 -8.21875 C 38.40625 -7.550781 38.160156 -6.972656 37.671875 -6.484375 L 31.78125 -0.46875 C 31.25 0.0625 30.582031 0.328125 29.78125 0.328125 L 10.75 0.328125 C 9.988281 0.328125 9.34375 0.0625 8.8125 -0.46875 L 2.8125 -6.484375 C 2.625 -6.703125 2.441406 -6.96875 2.265625 -7.28125 C 2.085938 -7.59375 2 -7.90625 2 -8.21875 L 2 -25.171875 C 2 -25.523438 2.085938 -25.859375 2.265625 -26.171875 C 2.441406 -26.484375 2.625 -26.726562 2.8125 -26.90625 L 8.8125 -32.921875 C 9.34375 -33.453125 9.988281 -33.71875 10.75 -33.71875 L 29.78125 -33.71875 C 30.582031 -33.71875 31.25 -33.453125 31.78125 -32.921875 L 37.671875 -26.90625 C 38.160156 -26.414062 38.40625 -25.835938 38.40625 -25.171875 L 38.40625 -21.109375 C 38.40625 -20.835938 38.300781 -20.597656 38.09375 -20.390625 C 37.894531 -20.191406 37.660156 -20.09375 37.390625 -20.09375 Z M 32.921875 -20.09375 "/></g></g></g><g fill="#b81f1d" fill-opacity="1"><g transform="translate(242.009503, 66.081271)"><g><path d="M 37.671875 -26.578125 C 38.160156 -26.085938 38.40625 -25.507812 38.40625 -24.84375 L 38.40625 -1 C 38.40625 -0.726562 38.300781 -0.492188 38.09375 -0.296875 C 37.894531 -0.0976562 37.660156 0 37.390625 0 L 32.921875 0 C 32.648438 0 32.414062 -0.0976562 32.21875 -0.296875 C 32.019531 -0.492188 31.921875 -0.726562 31.921875 -1 L 31.921875 -10.953125 L 8.484375 -10.953125 L 8.484375 -1 C 8.484375 -0.726562 8.378906 -0.492188 8.171875 -0.296875 C 7.972656 -0.0976562 7.742188 0 7.484375 0 L 3 0 C 2.738281 0 2.503906 -0.0976562 2.296875 -0.296875 C 2.097656 -0.492188 2 -0.726562 2 -1 L 2 -24.84375 C 2 -25.507812 2.242188 -26.085938 2.734375 -26.578125 L 8.609375 -32.59375 C 9.148438 -33.125 9.820312 -33.390625 10.625 -33.390625 L 29.78125 -33.390625 C 30.582031 -33.390625 31.25 -33.125 31.78125 -32.59375 Z M 8.484375 -16.765625 L 31.921875 -16.765625 L 31.921875 -23.109375 C 31.921875 -23.554688 31.765625 -23.929688 31.453125 -24.234375 L 29.3125 -26.25 L 28.921875 -26.578125 C 28.742188 -26.710938 28.519531 -26.78125 28.25 -26.78125 L 12.15625 -26.78125 C 11.84375 -26.78125 11.617188 -26.710938 11.484375 -26.578125 L 11.078125 -26.25 L 8.953125 -24.234375 C 8.640625 -23.929688 8.484375 -23.554688 8.484375 -23.109375 Z M 8.484375 -16.765625 "/></g></g></g></g></g></g></g></g></svg>